<?xml version="1.0" standalone="no"?>
<!DOCTYPE svg PUBLIC "-//W3C//DTD SVG 20010904//EN"
 "http://www.w3.org/TR/2001/REC-SVG-20010904/DTD/svg10.dtd">
<svg version="1.0" xmlns="http://www.w3.org/2000/svg"
 width="300.000000pt" height="300.000000pt" viewBox="0 0 300.000000 300.000000"
 preserveAspectRatio="xMidYMid meet">
<metadata>
Created by potrace 1.11, written by Peter Selinger 2001-2013
</metadata>
<g transform="translate(0.000000,300.000000) scale(0.100000,-0.100000)"
fill="#000000" stroke="none">
<path d="M27 2202 c-19 -4 -19 2 -19 -200 0 -79 2 -146 5 -149 4 -4 1144 -7
1370 -4 l37 1 0 175 c0 133 -3 175 -12 176 -41 3 -1367 3 -1381 1z"/>
<path d="M1602 2195 c-10 -15 -9 -1396 1 -1402 7 -4 129 -6 290 -4 l57 1 0
705 0 705 -27 1 c-163 5 -316 2 -321 -6z"/>
<path d="M2148 2200 l-23 -6 0 -698 c0 -384 4 -700 8 -703 7 -4 164 -6 305 -4
l42 1 0 705 0 705 -22 1 c-105 4 -291 3 -310 -1z"/>
<path d="M2665 2197 c-11 -6 -13 -130 -13 -702 0 -440 4 -697 10 -701 5 -3 82
-6 171 -7 l162 0 3 706 c2 668 1 707 -15 708 -89 5 -307 2 -318 -4z"/>
<path d="M37 1672 c-15 -2 -27 -10 -28 -18 -3 -79 0 -326 5 -331 3 -3 320 -6
703 -6 l698 0 3 176 c2 138 0 177 -10 178 -43 2 -1348 3 -1371 1z"/>
<path d="M18 1139 c-11 -7 -15 -335 -4 -346 4 -4 1117 -7 1359 -4 l47 1 0 175
c0 96 -3 176 -7 176 -31 5 -1387 3 -1395 -2z"/>
</g>
</svg>
