<svg xmlns="http://www.w3.org/2000/svg" viewBox="0 0 181.23 46.44">
    <g data-name="Layer 2">
        <g data-name="Layer 1">
            <g data-name="EM Logo" fill="#fff">
                <path d="M45.92 11.55H.29a.29.29 0 0 1-.29-.29V.29A.29.29 0 0 1 .29 0h45.63a.29.29 0 0 1 .29.29v11a.29.29 0 0 1-.29.29M45.92 28.88H.29a.29.29 0 0 1-.29-.29v-11a.29.29 0 0 1 .29-.29h45.63a.29.29 0 0 1 .29.29v11a.29.29 0 0 1-.29.29M45.92 46.21H.29a.29.29 0 0 1-.29-.29V35a.29.29 0 0 1 .29-.29h45.63a.29.29 0 0 1 .29.29v11a.29.29 0 0 1-.29.29M86.65 45.92V.29a.29.29 0 0 1 .29-.29h11a.29.29 0 0 1 .29.29v45.63a.29.29 0 0 1-.29.29h-11a.29.29 0 0 1-.29-.29M69.32 45.92V.29a.29.29 0 0 1 .29-.29h11a.29.29 0 0 1 .29.29v45.63a.29.29 0 0 1-.29.29h-11a.29.29 0 0 1-.29-.29M52 45.92V.29a.29.29 0 0 1 .28-.29h11a.29.29 0 0 1 .29.29v45.63a.29.29 0 0 1-.29.29h-11a.29.29 0 0 1-.29-.29M111.9 22.35v1.29a.26.26 0 0 1-.26.26h-5.23a.27.27 0 0 0-.26.27v2.63a.26.26 0 0 0 .26.26H112a.26.26 0 0 1 .26.27v1.29a.25.25 0 0 1-.26.26h-7.75a.25.25 0 0 1-.26-.26v-11a.26.26 0 0 1 .26-.26h7.67a.26.26 0 0 1 .26.26v1.3a.26.26 0 0 1-.26.26h-5.5a.26.26 0 0 0-.26.26v2.41a.26.26 0 0 0 .26.26h5.23a.27.27 0 0 1 .26.27M120.51 25.21l3.19-7.72a.26.26 0 0 1 .25-.16h2.56a.26.26 0 0 1 .26.26v11a.27.27 0 0 1-.26.27h-1.65a.27.27 0 0 1-.27-.27v-7.21a.13.13 0 0 0-.25-.06l-3 7.4a.27.27 0 0 1-.24.17h-1.33a.27.27 0 0 1-.24-.17l-3-7.4a.13.13 0 0 0-.25.06v7.24a.27.27 0 0 1-.26.27h-1.65a.27.27 0 0 1-.27-.27v-11a.27.27 0 0 1 .27-.26h2.56a.26.26 0 0 1 .24.16l3.2 7.72a.13.13 0 0 0 .24 0M136.61 22.35v1.29a.26.26 0 0 1-.26.26h-5.22a.26.26 0 0 0-.26.27v2.63a.25.25 0 0 0 .26.26h5.57a.27.27 0 0 1 .27.27v1.29a.26.26 0 0 1-.27.26H129a.26.26 0 0 1-.26-.26v-11a.26.26 0 0 1 .26-.26h7.67a.27.27 0 0 1 .27.26v1.3a.27.27 0 0 1-.27.26h-5.49a.26.26 0 0 0-.26.26v2.41a.25.25 0 0 0 .26.26h5.22a.27.27 0 0 1 .26.27M138.72 28.62v-11a.27.27 0 0 1 .27-.26h4.63c3 0 4.33 1.41 4.33 3.64a3.17 3.17 0 0 1-2.34 3.26.26.26 0 0 0-.15.38l2.28 3.88a.26.26 0 0 1-.23.39h-1.83a.26.26 0 0 1-.23-.12l-2.35-4a.25.25 0 0 0-.22-.13h-1.72a.27.27 0 0 0-.26.27v3.74a.26.26 0 0 1-.26.26H139a.26.26 0 0 1-.27-.26m2.18-9.21v3.12a.26.26 0 0 0 .26.26h2.46c1.51 0 2.14-.55 2.14-1.82s-.63-1.82-2.14-1.82h-2.46a.26.26 0 0 0-.26.26M150.93 28.89h-1.7a.27.27 0 0 1-.24-.37l4.65-11a.25.25 0 0 1 .24-.16h1.43a.25.25 0 0 1 .24.16l4.65 11a.27.27 0 0 1-.24.37h-1.7a.27.27 0 0 1-.24-.17l-1-2.36a.26.26 0 0 0-.24-.17h-4.44a.27.27 0 0 0-.24.17l-1 2.36a.27.27 0 0 1-.24.17m2.2-4.53h2.92a.13.13 0 0 0 .12-.18l-1.34-3.27a.26.26 0 0 0-.48 0L153 24.18a.13.13 0 0 0 .12.18M164 27.06h5.14a.27.27 0 0 1 .27.27v1.29a.27.27 0 0 1-.27.27h-7.31a.26.26 0 0 1-.26-.27v-11a.26.26 0 0 1 .26-.26h1.65a.26.26 0 0 1 .26.26v9.18a.26.26 0 0 0 .26.26M175.54 28.88h-4.3a.26.26 0 0 1-.26-.26v-11a.26.26 0 0 1 .26-.26h4.3c3.88 0 5.69 2.53 5.69 5.78s-1.81 5.77-5.69 5.77m-2.38-2.08a.26.26 0 0 0 .26.26h2.12c2.49 0 3.49-1.87 3.49-3.95s-1-4-3.49-4h-2.12a.26.26 0 0 0-.26.26zM111.89 39.68V41a.27.27 0 0 1-.27.27h-5.2a.27.27 0 0 0-.27.28v2.61a.27.27 0 0 0 .27.27H112a.27.27 0 0 1 .28.27v1.28a.27.27 0 0 1-.28.27h-7.72a.27.27 0 0 1-.27-.27v-11a.27.27 0 0 1 .27-.27h7.64a.28.28 0 0 1 .28.27v1.22a.28.28 0 0 1-.28.27h-5.47a.27.27 0 0 0-.27.27v2.39a.27.27 0 0 0 .27.27h5.2a.27.27 0 0 1 .27.28M114.28 34.65h2.34a.25.25 0 0 1 .23.13l4.85 8a.13.13 0 0 0 .25-.07v-7.79a.27.27 0 0 1 .28-.27h1.62a.27.27 0 0 1 .28.27v11a.27.27 0 0 1-.28.27h-2.34a.28.28 0 0 1-.23-.13l-4.85-8a.13.13 0 0 0-.25.07v7.77a.27.27 0 0 1-.27.27h-1.63a.28.28 0 0 1-.28-.27v-11a.28.28 0 0 1 .28-.27M125.94 40.43c0-3.48 2.18-6 6.14-6a7.36 7.36 0 0 1 4.46 1.3.26.26 0 0 1 .06.38l-.75 1a.25.25 0 0 1-.35.06 6.5 6.5 0 0 0-3.42-.91c-2.66 0-3.93 1.78-3.93 4.2s1.27 4.19 3.93 4.19a5.84 5.84 0 0 0 2.53-.49.27.27 0 0 0 .14-.24v-2.25a.28.28 0 0 0-.28-.27h-2a.27.27 0 0 1-.27-.27v-1.28a.27.27 0 0 1 .27-.27h4a.27.27 0 0 1 .27.27V45a.28.28 0 0 1-.1.22 7.45 7.45 0 0 1-4.61 1.27c-4 0-6.14-2.53-6.14-6M141.06 44.38h5.11a.27.27 0 0 1 .27.27v1.28a.27.27 0 0 1-.27.27h-7.29a.27.27 0 0 1-.27-.27v-11a.27.27 0 0 1 .27-.27h1.63a.27.27 0 0 1 .27.27v9.19a.28.28 0 0 0 .28.27M148.53 34.65h1.63a.28.28 0 0 1 .28.27v11a.28.28 0 0 1-.28.27h-1.63a.27.27 0 0 1-.27-.27v-11a.27.27 0 0 1 .27-.27M160 36.81a.28.28 0 0 1-.35.08 6 6 0 0 0-2.87-.66c-1.3 0-2.12.4-2.12 1.35s.8 1.37 2.46 1.73c2.92.61 4.37 1.73 4.37 3.73 0 2.42-1.88 3.4-4.43 3.4a7.78 7.78 0 0 1-4.7-1.19.28.28 0 0 1-.07-.39l.77-1.09a.27.27 0 0 1 .35-.08 7.32 7.32 0 0 0 3.65.93c1.5 0 2.24-.43 2.24-1.58 0-.87-.72-1.45-2.57-1.84-3.06-.64-4.26-1.91-4.26-3.62s1.29-3.17 4.31-3.17a7 7 0 0 1 3.9.91.29.29 0 0 1 .08.4zM171.27 34.65h1.63a.27.27 0 0 1 .27.27v11a.27.27 0 0 1-.27.27h-1.63a.28.28 0 0 1-.28-.27V41.5a.28.28 0 0 0-.27-.28h-4.95a.29.29 0 0 0-.28.28v4.43a.27.27 0 0 1-.27.27h-1.63a.27.27 0 0 1-.27-.27v-11a.27.27 0 0 1 .27-.27h1.63a.27.27 0 0 1 .27.27v4.21a.28.28 0 0 0 .28.27h4.95a.27.27 0 0 0 .27-.27v-4.22a.28.28 0 0 1 .28-.27"/>
            </g>
        </g>
    </g>
</svg>
