<svg xmlns="http://www.w3.org/2000/svg" viewBox="0 0 42.5 20">
    <g data-name="Layer 2">
        <g data-name="Layer 1">
            <g data-name="EM Logo" fill="#2d262b">
                <path d="M19.87 5H.13A.13.13 0 0 1 0 4.87V.13A.13.13 0 0 1 .13 0h19.74a.13.13 0 0 1 .13.13v4.74a.13.13 0 0 1-.13.13M19.87 12.5H.13a.13.13 0 0 1-.13-.13V7.63a.13.13 0 0 1 .13-.13h19.74a.13.13 0 0 1 .13.13v4.74a.13.13 0 0 1-.13.13M19.87 20H.13a.13.13 0 0 1-.13-.13v-4.74A.13.13 0 0 1 .13 15h19.74a.13.13 0 0 1 .13.13v4.74a.13.13 0 0 1-.13.13M37.5 19.87V.13a.13.13 0 0 1 .13-.13h4.74a.13.13 0 0 1 .13.13v19.74a.13.13 0 0 1-.13.13h-4.74a.13.13 0 0 1-.13-.13M30 19.87V.13a.13.13 0 0 1 .13-.13h4.74a.13.13 0 0 1 .13.13v19.74a.13.13 0 0 1-.13.13h-4.74a.13.13 0 0 1-.13-.13M22.5 19.87V.13a.13.13 0 0 1 .13-.13h4.74a.13.13 0 0 1 .13.13v19.74a.13.13 0 0 1-.13.13h-4.74a.13.13 0 0 1-.13-.13"/>
            </g>
        </g>
    </g>
</svg>
